<svg id="Laag_1" data-name="Laag 1" xmlns="http://www.w3.org/2000/svg" viewBox="0 0 536.21 572.27"><defs><style>.cls-1{fill:none;}.cls-2{fill:#066b63;}.cls-3{fill:#36afa6;}.cls-4{fill:#35b4a3;}.cls-5{fill:#73bcb7;}</style></defs><title>logo los</title><polygon class="cls-1" points="191.39 289.93 191.56 289.69 191.5 289.36 191.39 289.93"/><polygon class="cls-2" points="536.21 572.27 424.41 233.47 360.03 410.5 332.28 410.5 315.57 410.5 315.56 410.42 282.74 410.42 282.73 410.5 261.93 410.5 255.97 410.42 213.77 410.42 191.56 289.69 191.39 289.93 169.22 410.42 109.2 410.42 108.99 410.73 146.35 572.09 387 572.27 386.96 572.15 536.21 572.27"/><polygon class="cls-3" points="334.8 410.42 315.56 410.42 315.57 410.5 332.28 410.5 360.03 410.5 424.41 233.47 424.69 232.7 385.76 232.7 344.02 351.96 302.28 232.7 276.73 232.7 334.94 409.98 334.8 410.42"/><polygon class="cls-4" points="261.93 410.5 282.73 410.5 282.74 410.42 255.97 410.42 261.93 410.5"/><polygon class="cls-5" points="191.39 289.93 191.5 289.36 191.56 289.69 213.77 410.42 255.97 410.42 282.74 410.42 315.56 410.42 334.8 410.42 334.94 409.98 276.73 232.7 260.91 184.51 187.25 184.51 130.62 336.05 73.98 0.86 0 0 108.89 410.42 109.2 410.42 169.22 410.42 191.39 289.93"/></svg>