<svg id="Laag_1" data-name="Laag 1" xmlns="http://www.w3.org/2000/svg" xmlns:xlink="http://www.w3.org/1999/xlink" viewBox="0 0 543.86 706.34"><defs><style>.cls-1{fill:none;}.cls-2{clip-path:url(#clip-path);}.cls-11,.cls-3{fill:#00a19a;}.cls-3{stroke:#00a19a;stroke-miterlimit:10;opacity:0.2;}.cls-12,.cls-4{opacity:0.5;}.cls-12,.cls-5{fill:#066b63;}.cls-6{fill:#36afa6;}.cls-7{fill:#35b4a3;}.cls-8{fill:#73bcb7;}.cls-9{font-size:14px;fill:#fff;font-family:Myriad Pro;}.cls-10{letter-spacing:3px;}.cls-13{clip-path:url(#clip-path-2);}</style><clipPath id="clip-path" transform="translate(0 -12.46)"><rect class="cls-1" x="46.81" y="386.34" width="487.63" height="331.96"/></clipPath><clipPath id="clip-path-2" transform="translate(0 -12.46)"><rect class="cls-1" x="46.81" y="28.34" width="487.63" height="331.96"/></clipPath></defs><title>start scherm</title><g class="cls-2"><rect class="cls-3" x="46.81" y="373.88" width="487.63" height="331.96"/><g class="cls-4"><polygon class="cls-1" points="116.4 534.33 116.5 534.18 116.46 533.98 116.4 534.33"/><polygon class="cls-5" points="326.1 706.03 258.11 499.99 218.96 607.64 202.08 607.64 191.91 607.64 191.91 607.6 171.95 607.6 171.94 607.64 159.3 607.64 155.67 607.6 130.01 607.6 116.5 534.18 116.4 534.33 102.91 607.6 66.41 607.6 66.28 607.79 89 705.92 235.35 706.03 235.33 705.96 326.1 706.03"/><polygon class="cls-6" points="203.61 607.6 191.91 607.6 191.91 607.64 202.08 607.64 218.96 607.64 258.11 499.99 258.28 499.51 234.6 499.51 209.22 572.05 183.83 499.51 168.3 499.51 203.7 607.33 203.61 607.6"/><polygon class="cls-7" points="159.3 607.64 171.94 607.64 171.95 607.6 155.67 607.6 159.3 607.64"/><polygon class="cls-8" points="116.4 534.33 116.46 533.98 116.5 534.18 130.01 607.6 155.67 607.6 171.95 607.6 191.91 607.6 203.61 607.6 203.7 607.33 168.3 499.51 158.67 470.21 113.88 470.21 79.43 562.37 44.99 358.52 0 358 66.22 607.6 66.41 607.6 102.91 607.6 116.4 534.33"/></g><text class="cls-9" transform="translate(245.56 412.68)">w<tspan x="10.16" y="0">el</tspan><tspan x="20.48" y="0">c</tspan><tspan x="26.67" y="0">ome </tspan><tspan x="56.01" y="0">t</tspan><tspan x="60.56" y="0">o</tspan><tspan x="68.25" y="0"> </tspan><tspan x="70.71" y="0">W</tspan><tspan x="82.09" y="0">eebI</tspan><tspan x="107.43" y="0">R</tspan><tspan x="115.01" y="0">C</tspan><tspan x="-125.55" y="33.6">in</tspan><tspan x="-114.5" y="33.6"> </tspan><tspan x="-111.49" y="33.6">o</tspan><tspan x="-103.81" y="33.6">r</tspan><tspan x="-99.37" y="33.6">der</tspan><tspan x="-79.88" y="33.6"> </tspan><tspan x="-76.87" y="33.6">t</tspan><tspan x="-72.32" y="33.6">o</tspan><tspan x="-64.64" y="33.6"> </tspan><tspan x="-61.63" y="33.6">idj</tspan><tspan x="-47.05" y="33.6">f</tspan><tspan x="-43.15" y="33.6">osj</tspan><tspan x="-26.51" y="33.6">f</tspan><tspan x="-22.55" y="33.6">sioj</tspan><tspan x="-2.65" y="33.6">f</tspan><tspan x="1.26" y="33.6">osiejiojf</tspan><tspan x="46.64" y="33.6"> </tspan><tspan x="49.65" y="33.6">j</tspan><tspan x="53.05" y="33.6"> </tspan><tspan x="56.06" y="33.6">ijdlifj</tspan><tspan x="84.52" y="33.6"> </tspan><tspan x="87.53" y="33.6">i</tspan><tspan x="90.81" y="33.6"> </tspan><tspan x="93.81" y="33.6">jlsjdfij</tspan><tspan x="128.09" y="33.6"> </tspan><tspan x="131.1" y="33.6">osjfjldj</tspan><tspan x="169.64" y="33.6"> </tspan><tspan x="172.65" y="33.6">j</tspan><tspan x="176.05" y="33.6"> </tspan><tspan x="179.06" y="33.6">slfz</tspan><tspan x="197.99" y="33.6">l</tspan><tspan x="201.15" y="33.6">.lejflsfljfi </tspan><tspan x="-125.55" y="50.4">ej</tspan><tspan x="-115.13" y="50.4">f</tspan><tspan x="-111.23" y="50.4">oijs</tspan><tspan class="cls-10" x="-91.32" y="50.4"> </tspan><tspan x="-85.17" y="50.4">oij</tspan><tspan x="-70.8" y="50.4">f</tspan><tspan x="-66.84" y="50.4">soifj</tspan><tspan class="cls-10" x="-43.03" y="50.4"> </tspan><tspan x="-36.88" y="50.4">elsjflijslejfle </tspan><tspan class="cls-10" x="29.99" y="50.4">j</tspan><tspan x="36.14" y="50.4">fls</tspan><tspan class="cls-10" x="52.41" y="50.4"> </tspan><tspan x="58.56" y="50.4">ij</tspan><tspan x="65.24" y="50.4">f</tspan><tspan x="69.14" y="50.4">dil</tspan><tspan class="cls-10" x="83.62" y="50.4"> </tspan><tspan x="89.77" y="50.4">sj</tspan><tspan x="98.72" y="50.4">f</tspan><tspan x="102.62" y="50.4">dosj</tspan><tspan x="127.15" y="50.4">f</tspan><tspan x="131.06" y="50.4">dijf</tspan><tspan x="145.63" y="50.4">d</tspan><tspan x="149.54" y="50.4">lfjs</tspan><tspan class="cls-10" x="173.59" y="50.4"> </tspan><tspan x="179.74" y="50.4">k</tspan><tspan x="186.54" y="50.4">ldjlsjfls</tspan><tspan class="cls-10" x="226.26" y="50.4"> </tspan><tspan x="232.42" y="50.4">jl</tspan><tspan class="cls-10" x="239.12" y="50.4"> </tspan><tspan x="245.27" y="50.4">j </tspan><tspan x="-76.63" y="67.2">dlijfldjf ldj</tspan><tspan x="-18.47" y="67.2">f</tspan><tspan x="-14.57" y="67.2">elj jldjslifj lselkfjli ldj</tspan><tspan x="99.71" y="67.2">f</tspan><tspan x="103.34" y="67.2">.</tspan><tspan x="106.23" y="67.2"> </tspan><tspan class="cls-11" x="108.7" y="67.2">W</tspan><tspan class="cls-11" x="120.08" y="67.2">eebI</tspan><tspan class="cls-11" x="145.42" y="67.2">R</tspan><tspan class="cls-11" x="152.99" y="67.2">C se</tspan><tspan class="cls-11" x="176.64" y="67.2">r</tspan><tspan class="cls-11" x="181.57" y="67.2">v</tspan><tspan class="cls-11" x="188.16" y="67.2">er</tspan></text><rect class="cls-12" x="462.28" y="503.81" width="73.2" height="19.59"/><text class="cls-9" transform="translate(483.41 516.68)">n<tspan x="7.77" y="0">e</tspan><tspan x="14.74" y="0">x</tspan><tspan x="21.41" y="0">t</tspan></text></g><g class="cls-13"><rect class="cls-3" x="46.81" y="15.88" width="487.63" height="331.96"/><rect class="cls-3" x="46.81" y="15.88" width="487.63" height="331.96"/><rect class="cls-3" x="46.81" y="15.88" width="487.63" height="331.96"/><g class="cls-4"><polygon class="cls-1" points="116.4 176.32 116.5 176.18 116.46 175.98 116.4 176.32"/><polygon class="cls-5" points="326.1 348.03 258.11 141.99 218.96 249.65 202.08 249.65 191.91 249.65 191.91 249.6 171.95 249.6 171.94 249.65 159.3 249.65 155.67 249.6 130.01 249.6 116.5 176.18 116.4 176.32 102.91 249.6 66.41 249.6 66.28 249.79 89 347.92 235.35 348.03 235.33 347.96 326.1 348.03"/><polygon class="cls-6" points="203.61 249.6 191.91 249.6 191.91 249.65 202.08 249.65 218.96 249.65 258.11 141.99 258.28 141.51 234.6 141.51 209.22 214.05 183.83 141.51 168.3 141.51 203.7 249.33 203.61 249.6"/><polygon class="cls-7" points="159.3 249.65 171.94 249.65 171.95 249.6 155.67 249.6 159.3 249.65"/><polygon class="cls-8" points="116.4 176.32 116.46 175.98 116.5 176.18 130.01 249.6 155.67 249.6 171.95 249.6 191.91 249.6 203.61 249.6 203.7 249.33 168.3 141.51 158.67 112.21 113.88 112.21 79.43 204.37 44.99 0.52 0 0 66.22 249.6 66.41 249.6 102.91 249.6 116.4 176.32"/></g><text class="cls-9" transform="translate(245.56 54.68)">w<tspan x="10.16" y="0">el</tspan><tspan x="20.48" y="0">c</tspan><tspan x="26.67" y="0">ome </tspan><tspan x="56.01" y="0">t</tspan><tspan x="60.56" y="0">o</tspan><tspan x="68.25" y="0"> </tspan><tspan x="70.71" y="0">W</tspan><tspan x="82.09" y="0">eebI</tspan><tspan x="107.43" y="0">R</tspan><tspan x="115.01" y="0">C</tspan><tspan x="-125.55" y="33.6">in</tspan><tspan x="-114.5" y="33.6"> </tspan><tspan x="-111.49" y="33.6">o</tspan><tspan x="-103.81" y="33.6">r</tspan><tspan x="-99.37" y="33.6">der</tspan><tspan x="-79.88" y="33.6"> </tspan><tspan x="-76.87" y="33.6">t</tspan><tspan x="-72.32" y="33.6">o</tspan><tspan x="-64.64" y="33.6"> </tspan><tspan x="-61.63" y="33.6">idj</tspan><tspan x="-47.05" y="33.6">f</tspan><tspan x="-43.15" y="33.6">osj</tspan><tspan x="-26.51" y="33.6">f</tspan><tspan x="-22.55" y="33.6">sioj</tspan><tspan x="-2.65" y="33.6">f</tspan><tspan x="1.26" y="33.6">osiejiojf</tspan><tspan x="46.64" y="33.6"> </tspan><tspan x="49.65" y="33.6">j</tspan><tspan x="53.05" y="33.6"> </tspan><tspan x="56.06" y="33.6">ijdlifj</tspan><tspan x="84.52" y="33.6"> </tspan><tspan x="87.53" y="33.6">i</tspan><tspan x="90.81" y="33.6"> </tspan><tspan x="93.81" y="33.6">jlsjdfij</tspan><tspan x="128.09" y="33.6"> </tspan><tspan x="131.1" y="33.6">osjfjldj</tspan><tspan x="169.64" y="33.6"> </tspan><tspan x="172.65" y="33.6">j</tspan><tspan x="176.05" y="33.6"> </tspan><tspan x="179.06" y="33.6">slfz</tspan><tspan x="197.99" y="33.6">l</tspan><tspan x="201.15" y="33.6">.lejflsfljfi </tspan><tspan x="-125.55" y="50.4">ej</tspan><tspan x="-115.13" y="50.4">f</tspan><tspan x="-111.23" y="50.4">oijs</tspan><tspan class="cls-10" x="-91.32" y="50.4"> </tspan><tspan x="-85.17" y="50.4">oij</tspan><tspan x="-70.8" y="50.4">f</tspan><tspan x="-66.84" y="50.4">soifj</tspan><tspan class="cls-10" x="-43.03" y="50.4"> </tspan><tspan x="-36.88" y="50.4">elsjflijslejfle </tspan><tspan class="cls-10" x="29.99" y="50.4">j</tspan><tspan x="36.14" y="50.4">fls</tspan><tspan class="cls-10" x="52.41" y="50.4"> </tspan><tspan x="58.56" y="50.4">ij</tspan><tspan x="65.24" y="50.4">f</tspan><tspan x="69.14" y="50.4">dil</tspan><tspan class="cls-10" x="83.62" y="50.4"> </tspan><tspan x="89.77" y="50.4">sj</tspan><tspan x="98.72" y="50.4">f</tspan><tspan x="102.62" y="50.4">dosj</tspan><tspan x="127.15" y="50.4">f</tspan><tspan x="131.06" y="50.4">dijf</tspan><tspan x="145.63" y="50.4">d</tspan><tspan x="149.54" y="50.4">lfjs</tspan><tspan class="cls-10" x="173.59" y="50.4"> </tspan><tspan x="179.74" y="50.4">k</tspan><tspan x="186.54" y="50.4">ldjlsjfls</tspan><tspan class="cls-10" x="226.26" y="50.4"> </tspan><tspan x="232.42" y="50.4">jl</tspan><tspan class="cls-10" x="239.12" y="50.4"> </tspan><tspan x="245.27" y="50.4">j </tspan><tspan x="-76.63" y="67.2">dlijfldjf ldj</tspan><tspan x="-18.47" y="67.2">f</tspan><tspan x="-14.57" y="67.2">elj jldjslifj lselkfjli ldj</tspan><tspan x="99.71" y="67.2">f</tspan><tspan x="103.34" y="67.2">.</tspan><tspan x="106.23" y="67.2"> </tspan><tspan class="cls-11" x="108.7" y="67.2">W</tspan><tspan class="cls-11" x="120.08" y="67.2">eebI</tspan><tspan class="cls-11" x="145.42" y="67.2">R</tspan><tspan class="cls-11" x="152.99" y="67.2">C se</tspan><tspan class="cls-11" x="176.64" y="67.2">r</tspan><tspan class="cls-11" x="181.57" y="67.2">v</tspan><tspan class="cls-11" x="188.16" y="67.2">er</tspan></text><rect class="cls-12" x="462.28" y="145.81" width="73.2" height="19.59"/><text class="cls-9" transform="translate(483.41 158.68)">n<tspan x="7.77" y="0">e</tspan><tspan x="14.74" y="0">x</tspan><tspan x="21.41" y="0">t</tspan></text></g></svg>