<svg id="Laag_1" data-name="Laag 1" xmlns="http://www.w3.org/2000/svg" viewBox="0 0 567.92 567.92"><defs><style>.cls-1{fill:#028e83;}.cls-2{fill:#027068;}.cls-3{fill:#05635a;}.cls-4{fill:#333;}.cls-5{fill:#5bbdb6;}</style></defs><title>w1</title><path class="cls-1" d="M295.3,82.36A282.56,282.56,0,0,0,139,129.28l48.62,287.78,57.62-154.17h73.63l0.13-.19,0.06,0.19h1.13l16.1,49h26l42.47,121.34L447.2,311.91h39.61l-0.25.69,60.93,184.18a282.62,282.62,0,0,0,31.76-130.45C579.26,209.49,452.13,82.36,295.3,82.36Z" transform="translate(-11.34 -82.36)"/><path class="cls-1" d="M82.2,178.75A282.79,282.79,0,0,0,11.34,366.32c0,122.36,77.4,226.64,185.91,266.56L165.51,492.73Z" transform="translate(-11.34 -82.36)"/><polygon class="cls-2" points="307.64 180.34 307.52 180.53 307.71 180.53 307.64 180.34"/><path class="cls-3" d="M421,492.81H375.78v-0.07H342.39v0.07H321.22l-6.06-.07H272.22L249.55,369.57,226.89,492.73H165.51l31.73,140.15A284.11,284.11,0,0,0,547.49,496.77L486.56,312.6Z" transform="translate(-11.34 -82.36)"/><polygon class="cls-4" points="309.88 410.44 331.04 410.44 331.05 410.37 303.82 410.37 309.88 410.44"/><path class="cls-5" d="M226.89,492.73l22.66-123.17,22.66,123.17H395.35l0.15-.45-9.7-29.53L336.27,311.91l-16.1-49H245.23L187.61,417.06,139,129.28A285.31,285.31,0,0,0,82.2,178.75l83.31,314h61.38Z" transform="translate(-11.34 -82.36)"/></svg>