<svg id="Laag_1" data-name="Laag 1" xmlns="http://www.w3.org/2000/svg" viewBox="0 0 562.15 562.15"><defs><style>.cls-1{fill:#00a19a;}.cls-2{fill:#027068;}.cls-3{fill:#333;}.cls-4{fill:#3c3c3b;}</style></defs><title>w2</title><polygon class="cls-1" points="259.41 283.27 259.31 283.86 259.48 283.61 259.41 283.27"/><path class="cls-1" d="M297.07,131.4a279.82,279.82,0,0,0-134,33.91l50.18,297L271.08,307.7h75.16l16.14,49.16h26.07L431,478.54l42.59-121.69h39.72l-0.29.79,49,148.61a280.58,280.58,0,0,0,16-93.78C578.15,257.25,452.3,131.4,297.07,131.4Z" transform="translate(-16 -131.4)"/><path class="cls-1" d="M191.44,538.19h-0.31L103.66,208.54A280.27,280.27,0,0,0,16,412.48c0,130.3,88.67,239.88,209,271.72L191.23,538.51Z" transform="translate(-16 -131.4)"/><path class="cls-2" d="M447.37,538.27H402v-0.08H368.51v0.08H347.28l-6.08-.08H298.14L275.47,415l-0.17.25L252.68,538.19H191.44l-0.22.32L225,684.2A281.24,281.24,0,0,0,562.1,506.26l-49-148.61Z" transform="translate(-16 -131.4)"/><polygon class="cls-3" points="352.5 406.87 352.51 406.79 325.2 406.79 331.28 406.87 352.5 406.87"/><polygon class="cls-4" points="403.05 406.87 431.37 406.87 497.06 226.24 497.35 225.45 457.63 225.45 415.04 347.14 372.45 225.45 346.38 225.45 396.13 376.96 405.78 406.34 405.63 406.79 403.03 406.79 385.99 406.79 386 406.87 403.05 406.87"/></svg>