<svg id="Laag_1" data-name="Laag 1" xmlns="http://www.w3.org/2000/svg" viewBox="0 0 530.71 530.71"><defs><style>.cls-1{fill:#1d71b8;}.cls-2{fill:#027068;}.cls-3{fill:#0d3b5f;}.cls-4{fill:#333;}.cls-5{fill:#5c95bc;}</style></defs><title>w3 blue</title><path class="cls-1" d="M295.26,114.6a264.05,264.05,0,0,0-146.07,43.85l45.44,268.92L248.47,283.3h68.8l0.12-.18,0.06,0.18h1.05l15,45.81h24.29L397.52,442.5l39.69-113.39h37l-0.23.64,56.94,172.11A264.1,264.1,0,0,0,560.61,380C560.61,233.4,441.81,114.6,295.26,114.6Z" transform="translate(-29.91 -114.6)"/><path class="cls-1" d="M96.13,204.67A264.27,264.27,0,0,0,29.91,380c0,114.34,72.33,211.79,173.72,249.1L174,498.08Z" transform="translate(-29.91 -114.6)"/><polygon class="cls-2" points="287.49 168.52 287.37 168.7 287.55 168.7 287.49 168.52"/><path class="cls-3" d="M412.75,498.15H370.47v-0.07h-31.2v0.07H319.48l-5.66-.07H273.69L252.51,383l-21.18,115.1H174l29.65,131a265.49,265.49,0,0,0,327.3-127.19L474,329.75Z" transform="translate(-29.91 -114.6)"/><polygon class="cls-4" points="289.57 383.55 309.35 383.55 309.36 383.48 283.91 383.48 289.57 383.55"/><path class="cls-5" d="M231.33,498.08L252.51,383l21.18,115.1H388.76l0.14-.42-9.06-27.59-46.29-141-15-45.81h-70L194.63,427.37,149.19,158.45a266.61,266.61,0,0,0-53.06,46.22L174,498.08h57.35Z" transform="translate(-29.91 -114.6)"/></svg>