<svg id="Laag_1" data-name="Laag 1" xmlns="http://www.w3.org/2000/svg" viewBox="0 0 540.82 540.82"><defs><style>.cls-1{fill:#00a19a;}.cls-2{fill:#027068;}.cls-3{fill:#333;}.cls-4{fill:#fff;}</style></defs><title>w4</title><path class="cls-1" d="M95.73,187.32A269.37,269.37,0,0,0,28.27,366c0,116.53,73.71,215.83,177,253.85L175.08,486.39Z" transform="translate(-28.27 -95.59)"/><path class="cls-1" d="M298.68,95.59a269.13,269.13,0,0,0-148.86,44.65l46.31,274.08L251,267.51h70.12l0.12-.18,0.06,0.18h1.07l15.33,46.68h24.75l40.44,115.55,40.44-115.55h37.72l-0.24.65,58.05,175.47A269.23,269.23,0,0,0,569.09,366C569.09,216.66,448,95.59,298.68,95.59Z" transform="translate(-28.27 -95.59)"/><polygon class="cls-2" points="292.97 171.74 292.85 171.91 293.03 171.91 292.97 171.74"/><path class="cls-2" d="M418.41,486.46H375.33v-0.07H343.52v0.07H323.36l-5.77-.07H276.7L255.12,369.1,233.53,486.39H175.08l30.22,133.47A270.53,270.53,0,0,0,538.87,490.32L480.82,314.84Z" transform="translate(-28.27 -95.59)"/><polygon class="cls-3" points="295.09 390.86 315.24 390.86 315.25 390.79 289.32 390.79 295.09 390.86"/><polygon class="cls-3" points="365.83 390.36 365.69 390.79 365.44 390.79 347.05 390.79 347.06 390.86 365.46 390.86 390.14 390.86 452.55 219.25 452.79 218.6 415.07 218.6 374.63 334.15 334.18 218.6 309.43 218.6 356.6 362.25 365.83 390.36"/><path class="cls-4" d="M233.53,486.39L255.12,369.1,276.7,486.39H394l0.14-.43-9.23-28.12L337.7,314.19l-15.33-46.68H251L196.13,414.33,149.82,140.24a271.83,271.83,0,0,0-54.09,47.08l79.35,299.07h58.45Z" transform="translate(-28.27 -95.59)"/></svg>